<?xml version="1.0" encoding="utf-8"?>
<!-- Generator: Adobe Illustrator 24.3.0, SVG Export Plug-In . SVG Version: 6.00 Build 0)  -->
<svg version="1.1" xmlns="http://www.w3.org/2000/svg" xmlns:xlink="http://www.w3.org/1999/xlink" x="0px" y="0px"
	 viewBox="0 0 792 612" style="enable-background:new 0 0 792 612;" xml:space="preserve">
<style type="text/css">
	.st0{fill:#9071FF;}
	.st1{fill:#FFFFFF;}
	.st2{fill:#F1B6FF;}
	.st3{fill:#FF7373;}
	.st4{fill:#282828;}
	.st5{fill:none;stroke:#000000;stroke-width:3;stroke-linecap:round;stroke-linejoin:round;stroke-miterlimit:10;}
</style>
<g id="star-big">
	<g id="star">
		<polygon class="st0" points="147.66,280.95 58.1,193.82 181.73,175.73 236.91,63.63 292.32,175.62 415.98,193.46 326.6,280.77 
			347.85,403.89 237.19,345.86 126.66,404.11 		"/>
		<path d="M236.91,64.76l54.84,110.84l0.23,0.47l0.52,0.08l122.4,17.66l-88.47,86.41l-0.38,0.37l0.09,0.52l21.03,121.87
			l-109.52-57.44l-0.47-0.24l-0.47,0.25L127.32,403.2l20.78-121.91l0.09-0.52l-0.38-0.37l-88.64-86.23l122.37-17.91l0.52-0.08
			l0.23-0.47L236.91,64.76 M236.91,62.5L181.4,175.28l-124.37,18.2l90.1,87.65L126,405.03l111.2-58.6l111.31,58.38l-21.37-123.86
			l89.92-87.83l-124.41-17.95L236.91,62.5L236.91,62.5z"/>
	</g>
	<g id="lights">
		<g>
			<path class="st1" d="M175.23,261.41c-7.5,0-13.59-6.1-13.59-13.59c0-7.5,6.1-13.59,13.59-13.59c7.5,0,13.59,6.1,13.59,13.59
				C188.82,255.31,182.72,261.41,175.23,261.41z"/>
			<path d="M175.23,234.72c7.22,0,13.09,5.87,13.09,13.09c0,7.22-5.87,13.09-13.09,13.09s-13.09-5.87-13.09-13.09
				C162.13,240.6,168.01,234.72,175.23,234.72 M175.23,233.72c-7.78,0-14.09,6.31-14.09,14.09c0,7.78,6.31,14.09,14.09,14.09
				c7.78,0,14.09-6.31,14.09-14.09C189.32,240.03,183.01,233.72,175.23,233.72L175.23,233.72z"/>
		</g>
		<g>
			<path class="st1" d="M212.94,261.3c-7.5,0-13.59-6.1-13.59-13.59c0-7.5,6.1-13.59,13.59-13.59c7.5,0,13.59,6.1,13.59,13.59
				C226.53,255.2,220.44,261.3,212.94,261.3z"/>
			<path d="M212.94,234.61c7.22,0,13.09,5.87,13.09,13.09c0,7.22-5.87,13.09-13.09,13.09s-13.09-5.87-13.09-13.09
				C199.85,240.48,205.72,234.61,212.94,234.61 M212.94,233.61c-7.78,0-14.09,6.31-14.09,14.09c0,7.78,6.31,14.09,14.09,14.09
				c7.78,0,14.09-6.31,14.09-14.09C227.03,239.92,220.72,233.61,212.94,233.61L212.94,233.61z"/>
		</g>
		<g>
			<path class="st1" d="M250.59,261.35c-7.5,0-13.59-6.1-13.59-13.59c0-7.5,6.1-13.59,13.59-13.59c7.5,0,13.59,6.1,13.59,13.59
				C264.18,255.25,258.08,261.35,250.59,261.35z"/>
			<path d="M250.59,234.66c7.22,0,13.09,5.87,13.09,13.09c0,7.22-5.87,13.09-13.09,13.09c-7.22,0-13.09-5.87-13.09-13.09
				C237.49,240.54,243.37,234.66,250.59,234.66 M250.59,233.66c-7.78,0-14.09,6.31-14.09,14.09c0,7.78,6.31,14.09,14.09,14.09
				c7.78,0,14.09-6.31,14.09-14.09C264.68,239.97,258.37,233.66,250.59,233.66L250.59,233.66z"/>
		</g>
		<g>
			<path class="st1" d="M288.26,261.24c-7.5,0-13.59-6.1-13.59-13.59c0-7.5,6.1-13.59,13.59-13.59c7.5,0,13.59,6.1,13.59,13.59
				C301.85,255.14,295.75,261.24,288.26,261.24z"/>
			<path d="M288.26,234.55c7.22,0,13.09,5.87,13.09,13.09c0,7.22-5.87,13.09-13.09,13.09s-13.09-5.87-13.09-13.09
				C275.16,240.43,281.04,234.55,288.26,234.55 M288.26,233.55c-7.78,0-14.09,6.31-14.09,14.09c0,7.78,6.31,14.09,14.09,14.09
				c7.78,0,14.09-6.31,14.09-14.09C302.35,239.86,296.04,233.55,288.26,233.55L288.26,233.55z"/>
		</g>
		<g id="lights_copy">
			<g>
				<path class="st2" d="M175.23,261.41c-7.5,0-13.59-6.1-13.59-13.59c0-7.5,6.1-13.59,13.59-13.59c7.5,0,13.59,6.1,13.59,13.59
					C188.82,255.31,182.72,261.41,175.23,261.41z"/>
				<g>
					<path d="M175.23,234.72c7.22,0,13.09,5.87,13.09,13.09s-5.87,13.09-13.09,13.09s-13.09-5.87-13.09-13.09
						S168.01,234.72,175.23,234.72 M175.23,233.72c-7.78,0-14.09,6.31-14.09,14.09s6.31,14.09,14.09,14.09
						c7.78,0,14.09-6.31,14.09-14.09S183.01,233.72,175.23,233.72L175.23,233.72z"/>
				</g>
			</g>
			<g>
				<path class="st2" d="M212.94,261.3c-7.5,0-13.59-6.1-13.59-13.59c0-7.5,6.1-13.59,13.59-13.59c7.5,0,13.59,6.1,13.59,13.59
					C226.53,255.2,220.44,261.3,212.94,261.3z"/>
				<g>
					<path d="M212.94,234.61c7.22,0,13.09,5.87,13.09,13.09s-5.87,13.09-13.09,13.09s-13.09-5.87-13.09-13.09
						S205.72,234.61,212.94,234.61 M212.94,233.61c-7.78,0-14.09,6.31-14.09,14.09c0,7.78,6.31,14.09,14.09,14.09
						c7.78,0,14.09-6.31,14.09-14.09C227.03,239.92,220.72,233.61,212.94,233.61L212.94,233.61z"/>
				</g>
			</g>
			<g>
				<path class="st2" d="M250.59,261.35c-7.5,0-13.59-6.1-13.59-13.59c0-7.5,6.1-13.59,13.59-13.59s13.59,6.1,13.59,13.59
					C264.18,255.25,258.08,261.35,250.59,261.35z"/>
				<g>
					<path d="M250.59,234.66c7.22,0,13.09,5.87,13.09,13.09s-5.87,13.09-13.09,13.09s-13.09-5.87-13.09-13.09
						S243.37,234.66,250.59,234.66 M250.59,233.66c-7.78,0-14.09,6.31-14.09,14.09s6.31,14.09,14.09,14.09s14.09-6.31,14.09-14.09
						S258.37,233.66,250.59,233.66L250.59,233.66z"/>
				</g>
			</g>
			<g>
				<path class="st2" d="M288.26,261.24c-7.5,0-13.59-6.1-13.59-13.59c0-7.5,6.1-13.59,13.59-13.59c7.5,0,13.59,6.1,13.59,13.59
					C301.85,255.14,295.75,261.24,288.26,261.24z"/>
				<g>
					<path d="M288.26,234.55c7.22,0,13.09,5.87,13.09,13.09s-5.87,13.09-13.09,13.09s-13.09-5.87-13.09-13.09
						S281.04,234.55,288.26,234.55 M288.26,233.55c-7.78,0-14.09,6.31-14.09,14.09c0,7.78,6.31,14.09,14.09,14.09
						s14.09-6.31,14.09-14.09C302.35,239.86,296.04,233.55,288.26,233.55L288.26,233.55z"/>
				</g>
			</g>
		</g>
	</g>
	<g id="fire_2_">
		<g id="fire_1_">
			<path class="st3" d="M119.24,435.38c-2.44-5.36-1.31-11.15,2.95-15.13c1.5-1.4,2.89-2.1,4.14-2.1c1.52,0,2.9,1.08,4.11,3.21
				c2.24,3.94,2.2,8.51-0.12,12.54l-6.56,11.41L119.24,435.38z"/>
			<path d="M126.33,418.65L126.33,418.65c1.33,0,2.56,0.99,3.68,2.96c2.15,3.78,2.11,8.17-0.11,12.04l-6.08,10.57l-4.12-9.04
				c-2.35-5.15-1.26-10.73,2.84-14.56C123.94,419.31,125.22,418.65,126.33,418.65 M126.33,417.65c-1.53,0-3.07,0.92-4.48,2.24
				c-4.49,4.19-5.53,10.3-3.07,15.71l4.93,10.81l7.05-12.26c2.33-4.05,2.48-8.87,0.12-13.03
				C129.46,418.61,127.9,417.65,126.33,417.65L126.33,417.65z"/>
		</g>
		<g id="fire">
			<path class="st3" d="M344.11,434.34c-2.44-5.36-1.31-11.15,2.95-15.13c1.5-1.4,2.89-2.1,4.14-2.1c1.52,0,2.9,1.08,4.11,3.21
				c2.24,3.94,2.2,8.51-0.12,12.54l-6.56,11.41L344.11,434.34z"/>
			<path d="M351.2,417.6L351.2,417.6c1.33,0,2.56,0.99,3.68,2.96c2.15,3.78,2.11,8.17-0.11,12.04l-6.08,10.57l-4.12-9.04
				c-2.35-5.15-1.26-10.73,2.84-14.56C348.81,418.27,350.09,417.6,351.2,417.6 M351.2,416.6c-1.53,0-3.07,0.92-4.48,2.24
				c-4.49,4.19-5.53,10.3-3.07,15.71l4.93,10.81l7.05-12.26c2.33-4.05,2.48-8.87,0.12-13.03C354.33,417.57,352.77,416.6,351.2,416.6
				L351.2,416.6z"/>
		</g>
	</g>
</g>
<g id="panda">
	<g>
		<ellipse class="st4" cx="532.22" cy="207.43" rx="33.65" ry="37.83"/>
	</g>
	<g>
		<ellipse class="st4" cx="653.26" cy="204.3" rx="33.65" ry="37.83"/>
	</g>
	<g>
		<ellipse class="st1" cx="592.22" cy="280.48" rx="107.78" ry="96.3"/>
		<path d="M592.22,185.17c58.88,0,106.78,42.75,106.78,95.3s-47.9,95.3-106.78,95.3s-106.78-42.75-106.78-95.3
			S533.34,185.17,592.22,185.17 M592.22,183.17c-60.08,0-108.78,43.56-108.78,97.3s48.7,97.3,108.78,97.3S701,334.22,701,280.48
			S652.3,183.17,592.22,183.17L592.22,183.17z"/>
	</g>
	<g>
		<ellipse class="st4" cx="550.48" cy="258.57" rx="33.65" ry="37.83"/>
	</g>
	<g>
		<ellipse class="st4" cx="631.87" cy="260.13" rx="33.65" ry="37.83"/>
	</g>
	<ellipse cx="547.87" cy="259.09" rx="10.7" ry="13.83"/>
	<g>
		
			<ellipse transform="matrix(0.1871 -0.9823 0.9823 0.1871 192.2743 741.4585)" class="st1" cx="544.15" cy="254.55" rx="5.48" ry="4.59"/>
	</g>
	<ellipse cx="630.65" cy="259.78" rx="10.7" ry="13.83"/>
	<g>
		
			<ellipse transform="matrix(0.1871 -0.9823 0.9823 0.1871 258.884 823.3445)" class="st1" cx="626.93" cy="255.25" rx="5.48" ry="4.59"/>
	</g>
	<ellipse cx="592.48" cy="314.65" rx="19.83" ry="10.09"/>
	<path class="st5" d="M559.43,332.69c0,0,31.39,13.08,32.7-11.77"/>
	<path class="st5" d="M624.57,333.3c0,0-31.39,13.08-32.7-11.77"/>
</g>
</svg>
